<?xml version="1.0" encoding="UTF-8" standalone="no"?>
<!DOCTYPE svg PUBLIC "-//W3C//DTD SVG 1.1//EN" "http://www.w3.org/Graphics/SVG/1.1/DTD/svg11.dtd">
<svg width="100%" height="100%" viewBox="0 0 6805 3488" version="1.1" xmlns="http://www.w3.org/2000/svg" xmlns:xlink="http://www.w3.org/1999/xlink" xml:space="preserve" xmlns:serif="http://www.serif.com/" style="fill-rule:evenodd;clip-rule:evenodd;stroke-linejoin:round;stroke-miterlimit:2;">
    <g transform="matrix(4.16667,0,0,4.16667,0,0)">
        <path d="M1046.12,312.569L883.365,312.569C866.797,312.569 853.365,299.137 853.365,282.569L853.365,119.819C853.365,103.25 866.797,89.819 883.365,89.819L1046.12,89.819C1062.68,89.819 1076.12,103.25 1076.12,119.819L1076.12,282.569C1076.12,299.137 1062.68,312.569 1046.12,312.569Z" style="fill:rgb(21,103,52);fill-rule:nonzero;"/>
        <path d="M1293.62,312.569L1130.87,312.569C1114.3,312.569 1100.87,299.137 1100.87,282.569L1100.87,119.819C1100.87,103.25 1114.3,89.819 1130.87,89.819L1293.62,89.819C1310.18,89.819 1323.62,103.25 1323.62,119.819L1323.62,282.569C1323.62,299.137 1310.18,312.569 1293.62,312.569Z" style="fill:rgb(13,15,48);fill-rule:nonzero;"/>
        <path d="M1541.12,312.569L1378.37,312.569C1361.8,312.569 1348.37,299.137 1348.37,282.569L1348.37,119.819C1348.37,103.25 1361.8,89.819 1378.37,89.819L1541.12,89.819C1557.68,89.819 1571.12,103.25 1571.12,119.819L1571.12,282.569C1571.12,299.137 1557.68,312.569 1541.12,312.569Z" style="fill:rgb(21,103,52);fill-rule:nonzero;"/>
        <path d="M1107.99,560.068L945.24,560.068C928.672,560.068 915.24,546.638 915.24,530.068L915.24,367.319C915.24,350.75 928.672,337.319 945.24,337.319L1107.99,337.319C1124.56,337.319 1137.99,350.75 1137.99,367.319L1137.99,530.068C1137.99,546.638 1124.56,560.068 1107.99,560.068Z" style="fill:rgb(13,15,48);fill-rule:nonzero;"/>
        <path d="M1355.49,560.068L1192.74,560.068C1176.17,560.068 1162.74,546.638 1162.74,530.068L1162.74,367.319C1162.74,350.75 1176.17,337.319 1192.74,337.319L1355.49,337.319C1372.06,337.319 1385.49,350.75 1385.49,367.319L1385.49,530.068C1385.49,546.638 1372.06,560.068 1355.49,560.068Z" style="fill:rgb(21,103,52);fill-rule:nonzero;"/>
        <path d="M1602.99,560.068L1440.24,560.068C1423.67,560.068 1410.24,546.638 1410.24,530.068L1410.24,367.319C1410.24,350.75 1423.67,337.319 1440.24,337.319L1602.99,337.319C1619.56,337.319 1632.99,350.75 1632.99,367.319L1632.99,530.068C1632.99,546.638 1619.56,560.068 1602.99,560.068Z" style="fill:rgb(237,31,36);fill-rule:nonzero;"/>
        <path d="M1169.87,436.318L1007.12,436.318C990.547,436.318 977.115,422.888 977.115,406.319L977.115,243.569C977.115,227 990.547,213.569 1007.12,213.569L1169.87,213.569C1186.43,213.569 1199.87,227 1199.87,243.569L1199.87,406.319C1199.87,422.888 1186.43,436.318 1169.87,436.318Z" style="fill:rgb(237,31,36);fill-rule:nonzero;"/>
        <path d="M1417.37,436.318L1254.62,436.318C1238.05,436.318 1224.62,422.888 1224.62,406.319L1224.62,243.569C1224.62,227 1238.05,213.569 1254.62,213.569L1417.37,213.569C1433.93,213.569 1447.37,227 1447.37,243.569L1447.37,406.319C1447.37,422.888 1433.93,436.318 1417.37,436.318Z" style="fill:rgb(254,205,3);fill-rule:nonzero;"/>
        <path d="M218.027,255.903L348.281,255.903L348.281,291.235L218.027,291.235L218.027,255.903ZM257.314,0.932L303.193,0.932L391.787,384.311L349.6,384.311L280.254,43.384L210.908,384.311L168.721,384.311L257.314,0.932Z" style="fill:rgb(13,15,48);fill-rule:nonzero;"/>
        <path d="M485.522,375.742C474.185,367.395 466.67,355.925 462.979,341.332L466.67,299.936C466.67,311.713 468.384,321.733 471.812,329.995C475.239,338.259 480.29,344.587 486.973,348.979C493.652,353.373 501.647,355.571 510.967,355.571C525.378,355.571 536.584,350.605 544.585,340.673C552.583,330.745 556.582,316.811 556.582,298.881L556.582,193.94C556.582,176.365 552.583,162.739 544.585,153.071C536.584,143.406 525.378,138.569 510.967,138.569C501.647,138.569 493.652,140.678 486.973,144.897C480.29,149.116 475.239,155.312 471.812,163.486C468.384,171.66 466.67,181.459 466.67,192.885L461.133,155.971C466.579,140.327 475.412,128.066 487.632,119.189C499.849,110.315 513.164,105.873 527.578,105.873C541.462,105.873 553.327,109.301 563.174,116.157C573.018,123.012 580.485,132.991 585.586,146.083C590.684,159.179 593.232,175.046 593.232,193.676L593.232,298.881C593.232,317.693 590.552,333.818 585.19,347.265C579.826,360.712 572.048,370.908 561.855,377.851C551.66,384.794 539.353,388.266 524.941,388.266C510,388.266 496.86,384.091 485.522,375.742ZM428.701,110.62L466.67,110.62L466.67,495.58L428.701,495.58L428.701,110.62Z" style="fill:rgb(13,15,48);fill-rule:nonzero;"/>
        <path d="M702.788,375.742C691.45,367.395 683.936,355.925 680.244,341.332L683.936,299.936C683.936,311.713 685.649,321.733 689.077,329.995C692.505,338.259 697.556,344.587 704.238,348.979C710.918,353.373 718.913,355.571 728.232,355.571C742.644,355.571 753.85,350.605 761.851,340.673C769.849,330.745 773.848,316.811 773.848,298.881L773.848,193.94C773.848,176.365 769.849,162.739 761.851,153.071C753.85,143.406 742.644,138.569 728.232,138.569C718.913,138.569 710.918,140.678 704.238,144.897C697.556,149.116 692.505,155.312 689.077,163.486C685.649,171.66 683.936,181.459 683.936,192.885L678.398,155.971C683.845,140.327 692.678,128.066 704.897,119.189C717.114,110.315 730.43,105.873 744.844,105.873C758.728,105.873 770.593,109.301 780.439,116.157C790.283,123.012 797.751,132.991 802.852,146.083C807.949,159.179 810.498,175.046 810.498,193.676L810.498,298.881C810.498,317.693 807.817,333.818 802.456,347.265C797.092,360.712 789.313,370.908 779.121,377.851C768.926,384.794 756.618,388.266 742.207,388.266C727.266,388.266 714.126,384.091 702.788,375.742ZM645.967,110.62L683.936,110.62L683.936,495.58L645.967,495.58L645.967,110.62Z" style="fill:rgb(13,15,48);fill-rule:nonzero;"/>
        <path d="M232.295,460.74L223.594,462.849L223.594,466.541L214.893,475.242L212.256,475.242L200.391,492.381L199.336,492.381L190.635,509.256L190.635,511.892L187.471,516.639C186.416,518.576 184.922,520.066 182.988,521.122L175.605,525.34L172.178,534.041C171.123,536.506 170.241,542.654 169.541,552.498L164.795,551.443L163.74,558.299L153.984,565.945L155.039,567L155.039,573.064L146.338,576.756L139.482,596.004C138.252,599.695 136.934,602.596 135.527,604.705L129.199,613.406L130.254,614.988L130.254,616.043L132.891,617.361L148.447,617.361L155.039,621.053L175.605,608.66L192.744,607.605L193.799,611.297L195.381,604.705L205.137,604.705L222.539,599.959L227.285,601.541L238.096,597.849L238.096,596.795L254.443,591.258L254.443,590.203L274.746,585.457L274.746,579.392L267.891,573.064L267.891,552.498L273.691,539.051L267.891,535.096L260.243,539.051L250.488,525.34L264.199,524.286L264.199,520.594L247.852,516.902L249.434,512.947L244.688,507.146L247.852,502.137L239.15,488.689L240.732,486.053L243.105,484.998L239.15,481.043L235.986,462.849L232.295,460.74ZM273.691,381.903L286.084,383.485L292.148,393.241L291.094,405.106C291.621,407.391 292.104,409.369 292.544,411.038C292.98,412.711 293.73,418.117 294.785,427.254L296.895,433.582L296.895,443.338L302.959,449.402L302.959,453.094L311.66,521.648L314.297,521.648L317.988,526.394L309.551,526.394C312.888,536.062 315.703,545.998 317.988,556.189L326.689,559.353L334.863,552.498L343.564,556.189L347.256,556.189L348.311,557.244L349.893,556.189C350.593,556.892 354.199,557.599 360.703,558.299L374.15,548.543L395.244,549.861L396.299,545.906L409.746,549.861L433.213,543.797L437.959,539.051C439.714,537.117 442.002,535.715 444.814,534.832L455.361,531.404L460.107,539.051L468.809,539.051L472.5,549.861C469.16,556.717 465.908,561.726 462.744,564.89L460.107,563.308L439.014,585.457L428.203,592.84L402.363,592.84L387.861,596.795L375.205,593.894L349.893,604.705L348.311,603.65L332.754,610.242L336.445,667.459L337.5,667.459L337.5,670.096L333.809,674.051L337.5,677.215L338.555,689.607L341.191,692.244L338.555,697.254L343.564,704.109L346.201,725.203L349.893,730.213L353.584,728.894L354.902,732.322L354.375,736.014L350.947,736.014L352.002,766.863C348.838,772.137 345.583,776.619 342.246,780.31L332.754,781.365L329.854,789.012L322.998,787.957L324.053,794.812L319.834,800.086C318.604,801.668 313.857,805.006 305.596,810.105L296.367,802.459C295.313,801.756 294.082,799.822 292.676,796.658L289.512,789.012L289.512,774.246L284.502,751.043L282.393,747.351L284.502,732.322L282.393,719.402L287.402,709.119L281.338,687.498C282.92,684.162 283.975,679.68 284.502,674.051L282.393,670.096L284.502,658.758C284.502,655.594 283.447,649.094 281.338,639.246L286.084,628.699L284.502,611.297L276.592,606.551L271.055,608.66L271.055,606.551L259.189,607.605L260.243,614.988L254.443,613.406L247.852,614.988L246.27,616.043C238.184,620.09 230.273,622.107 222.539,622.107L214.893,621.053L199.336,625.799L182.988,628.699L181.934,635.555L170.596,630.808L170.596,635.555L168.486,635.555L160.84,643.201L150.029,643.201L153.984,654.012L143.701,651.902L127.881,661.394L124.189,665.349L115.488,662.713L105.732,670.096L96.24,670.096L96.24,677.215L86.484,678.797L82.529,687.498L77.783,692.244L71.191,709.119L73.037,710.701C72.509,712.283 69.609,715.539 64.335,720.457L63.281,734.959L55.634,740.76L56.689,743.66L52.998,743.66L52.998,749.461L44.296,756.053L44.296,758.162C43.066,759.392 41.042,762.644 38.232,767.918L36.123,767.918L29.794,786.375L27.421,782.947L27.421,785.057L21.093,790.066L19.511,795.076C19.157,796.832 17.311,799.295 13.974,802.459L4.218,798.767C3.164,795.777 2.285,794.109 1.582,793.758L2.636,790.066L2.636,787.957L4.218,782.947C2.285,779.611 1.054,772.928 0.527,762.908L4.218,764.754L1.582,761.853L1.582,758.162L2.636,757.107L0.527,750.515L2.636,745.769L0,739.705L1.582,737.596C1.23,733.732 0.881,728.367 0.527,721.512L5.537,717.557L20.039,728.894L28.74,728.894L59.326,690.662L54.58,687.498L55.634,681.961L45.878,685.916L44.296,688.553L42.187,687.498L36.123,690.662C34.365,691.717 30.585,692.599 24.785,693.299L16.084,681.961C20.302,671.242 24.082,665.178 27.421,663.767C27.421,661.834 30.322,657.879 36.123,651.902L42.187,650.057L41.132,649.002L50.888,635.555L51.943,635.555L75.146,630.808L77.783,635.555L82.529,634.5L83.584,635.555L86.484,635.555L88.593,630.808L96.24,631.863L96.24,629.754L102.041,624.744L98.349,618.416L103.096,611.297L115.488,606.551L114.434,603.65L116.016,599.695C116.367,598.469 119.089,595.652 124.189,591.258C127.526,577.902 131.133,570.164 135,568.055L132.891,568.055L145.283,552.498L146.338,553.553L164.795,524.286L163.74,524.286L170.596,514.002L172.178,514.002L186.943,487.107L189.053,487.107L201.445,466.541L205.137,465.486L211.201,454.148C211.901,453.449 213.483,449.494 215.947,442.283L224.648,435.691L224.648,434.637L229.395,422.244L232.295,421.189L233.35,411.434L237.041,411.434L238.096,407.743L239.15,407.743L242.051,401.678L262.881,389.286L273.691,381.903Z" style="fill:rgb(13,15,48);fill-rule:nonzero;"/>
        <path d="M557.666,537.732C561.885,539.67 564.258,542.57 564.785,546.433C560.039,551.535 557.666,558.918 557.666,568.582L557.666,572.537C555.908,574.295 555.029,576.057 555.029,577.81C555.029,579.748 555.381,581.15 556.084,582.029L557.666,582.029L556.084,589.676L551.338,590.73L549.229,599.432L547.646,599.432C548.174,602.424 549.401,604.353 551.338,605.232C555.729,604.881 562.764,599.344 572.432,588.621L573.486,589.676L600.381,569.637L605.391,568.582L617.783,561.726L627.539,558.826C633.691,553.553 643.359,550.744 656.543,550.389C662.517,553.908 666.472,555.662 668.408,555.662C670.69,555.662 671.836,556.365 671.836,557.771C671.836,559.002 671.045,562.609 669.463,568.582L658.125,575.174L651.797,583.084L633.34,591.785L626.484,588.621L621.475,588.621L621.475,589.676C608.818,594.598 597.305,598.205 586.934,600.486C582.012,610.154 572.959,622.81 559.775,638.455C546.592,654.103 539.824,665.969 539.473,674.051L537.891,712.283L527.607,729.422L528.662,753.416C527.959,756.228 526.772,759.176 525.103,762.25C523.43,765.326 522.242,768.01 521.543,770.291C520.84,772.576 518.379,776.974 514.159,783.474L509.414,784.793C508.184,784.967 503.438,788.308 495.176,794.812L481.729,794.812L475.664,796.922L466.963,788.484C466.963,783.385 468.809,777.058 472.5,769.5C476.191,761.945 478.301,756.408 478.828,752.889C481.289,735.486 485.856,725.203 492.539,722.039L495.176,714.392L494.121,709.646L496.23,705.691L489.111,693.826L489.111,690.135L487.529,666.932C489.99,665.178 491.657,664.295 492.539,664.295C493.945,664.295 495.527,665.178 497.285,666.932L507.568,653.484L505.986,643.728L508.623,632.39L502.295,627.381L502.295,600.486L492.539,608.133L486.475,608.133L477.773,613.933L469.336,611.824L460.635,612.879C455.889,612.879 453.516,611.297 453.516,608.133C453.516,602.859 456.152,596.623 461.426,589.412C466.699,582.205 474.697,575.613 485.42,569.637L485.42,568.582L492.539,567.527C495.349,562.43 498.604,559.881 502.295,559.881C504.404,559.002 506.777,557.289 509.414,554.74C512.051,552.193 517.939,548.719 527.08,544.324L533.936,548.015L539.473,545.379L547.646,543.269L557.666,537.732Z" style="fill:rgb(200,32,38);fill-rule:nonzero;"/>
        <path d="M823.447,470.76C823.447,474.451 820.547,480.955 814.746,490.271L814.746,495.281L808.945,508.728L808.945,517.43L801.299,535.623L801.299,538.26C801.299,542.307 802.617,544.324 805.254,544.324L813.691,541.687C819.138,544.851 823.711,546.433 827.402,546.433L839.268,546.433C850.166,543.625 858.425,542.215 864.053,542.215C870.554,542.215 877.588,542.742 885.146,543.797L885.146,545.379L894.902,546.433L903.867,557.244L895.43,568.055L880.137,570.164L865.107,578.338L859.307,579.392C857.37,579.748 854.47,581.238 850.605,583.875L834.258,582.029C833.203,583.611 828.366,584.578 819.756,584.93L792.598,585.984C784.688,591.433 779.502,595.568 777.041,598.377L778.096,611.824L774.404,617.889L772.295,637.137L765.703,645.838L764.648,669.041L758.057,672.732L757.002,679.324L760.957,692.771L755.947,741.551L766.758,783.474L779.15,778.201C781.433,773.455 785.915,771.082 792.598,771.082L797.607,771.082C806.218,768.273 812.725,763.435 817.119,756.58L829.512,752.889L827.93,751.57L831.621,746.824C834.958,744.363 837.067,742.17 837.949,740.232L845.596,737.596L847.705,732.849C850.342,732.849 851.66,731.531 851.66,728.894C854.824,723.449 862.559,718.967 874.863,715.447C877.324,716.678 878.555,718.348 878.555,720.457C878.555,723.621 876.973,729.598 873.809,738.387C870.645,747.18 866.514,753.416 861.416,757.107L846.65,767.39L842.168,773.455C840.586,775.92 838.564,777.674 836.104,778.728L826.611,782.947L819.229,785.057L803.408,799.295L793.916,800.349L781.787,810.105L776.777,815.115C775.896,815.994 774.05,816.961 771.24,818.015L737.754,831.199L730.107,832.254L724.043,837L711.65,828.826L707.959,812.742L704.004,804.305C702.949,801.668 699.431,782.857 693.457,747.879C693.809,746.652 695.391,743.572 698.203,738.65L698.203,729.422L704.795,726.785L712.705,704.637L710.068,697.254C717.451,695.848 721.447,694.793 722.065,694.09C722.681,693.39 722.988,692.599 722.988,691.717C722.988,691.017 722.106,688.908 720.352,685.389L729.053,659.285L731.689,636.082L743.555,604.178C742.852,600.314 740.3,596.49 735.908,592.709C731.514,588.93 727.207,586.687 722.988,585.984L712.705,592.312L709.541,592.312C704.44,592.312 700.796,591.697 698.599,590.467C696.398,589.24 695.212,588.621 695.039,588.621C693.457,588.621 691.436,589.504 688.975,591.258C687.393,594.949 685.283,596.795 682.646,596.795L681.592,596.795C680.71,597.15 679.219,597.322 677.109,597.322C675.173,597.322 671.745,596.971 666.826,596.267C663.308,586.424 661.553,580.447 661.553,578.338C661.553,576.228 662.827,572.273 665.376,566.473C667.922,560.672 670.605,557.771 673.418,557.771L677.109,558.299L684.756,556.189C689.675,554.783 693.103,554.08 695.039,554.08L696.621,554.08C697.321,554.435 698.376,554.607 699.785,554.607C701.54,554.607 703.081,554.256 704.399,553.553C705.718,552.853 707.256,552.498 709.014,552.498C711.296,552.498 712.878,552.853 713.76,553.553L723.516,548.543L726.416,548.543C729.053,548.543 731.426,548.191 733.535,547.488C735.645,546.789 738.281,543.182 741.445,536.678L747.246,537.732C747.773,534.217 749.971,529.031 753.838,522.177C757.002,522.005 758.584,519.451 758.584,514.529L758.584,511.365L757.002,513.474C759.639,506.619 761.836,501.437 763.594,497.918L762.012,487.635L773.35,466.014C776.514,461.267 780.642,458.367 785.742,457.312C789.258,452.039 795.144,446.857 803.408,441.756C811.67,436.658 817.119,434.109 819.756,434.109C825.908,434.109 829.685,436.838 831.094,442.283L823.447,457.312L823.447,470.76Z" style="fill:rgb(35,94,46);fill-rule:nonzero;"/>
    </g>
</svg>
